<svg width="171" height="32" viewBox="0 0 171 32" fill="none" xmlns="http://www.w3.org/2000/svg">
<path d="M0 27.461V11.5732H5.92899C7.05398 11.5732 8.04974 11.7926 8.91629 12.2314C9.78283 12.6702 10.4593 13.2755 10.9458 14.0472C11.4323 14.8037 11.6755 15.6889 11.6755 16.7027C11.6755 17.7014 11.4171 18.5941 10.9002 19.3809C10.3985 20.1526 9.70682 20.7579 8.82507 21.1967C7.94333 21.6204 6.93996 21.8322 5.81497 21.8322H3.12412V27.461H0ZM8.77947 27.461L5.08525 21.0832L7.47965 19.3809L12.3141 27.461H8.77947ZM3.12412 18.9951H5.95179C6.42307 18.9951 6.84114 18.8967 7.206 18.7C7.58607 18.5033 7.88252 18.231 8.09535 17.8829C8.32339 17.5349 8.43741 17.1415 8.43741 16.7027C8.43741 16.0218 8.18657 15.4695 7.68488 15.0458C7.1984 14.6222 6.5675 14.4103 5.79217 14.4103H3.12412V18.9951Z" fill="#000D0B"/>
<path d="M19.4182 27.7334C18.2932 27.7334 17.2974 27.4837 16.4309 26.9844C15.5643 26.4699 14.8802 25.7663 14.3785 24.8736C13.892 23.9808 13.6488 22.9519 13.6488 21.7868C13.6488 20.6217 13.8996 19.5928 14.4013 18.7C14.9182 17.8073 15.6175 17.1113 16.4993 16.6119C17.3962 16.0975 18.4224 15.8402 19.5778 15.8402C20.5811 15.8402 21.5009 16.105 22.337 16.6346C23.1884 17.1491 23.8649 17.9132 24.3666 18.927C24.8835 19.9257 25.1419 21.1437 25.1419 22.5812H16.4993L16.7729 22.3088C16.7729 22.8687 16.9097 23.3605 17.1834 23.7841C17.4722 24.1927 17.8371 24.5104 18.278 24.7374C18.734 24.9492 19.2205 25.0552 19.7374 25.0552C20.3607 25.0552 20.87 24.9265 21.2653 24.6693C21.6605 24.397 21.9646 24.0489 22.1774 23.6253L24.8683 24.6693C24.549 25.3048 24.1309 25.8571 23.6141 26.3262C23.1124 26.7801 22.5119 27.1281 21.8126 27.3702C21.1132 27.6123 20.3151 27.7334 19.4182 27.7334ZM16.9325 20.6293L16.6589 20.3569H22.1546L21.9038 20.6293C21.9038 20.0845 21.7745 19.6533 21.5161 19.3355C21.2577 19.0027 20.9384 18.7606 20.5583 18.6092C20.1935 18.4579 19.8362 18.3823 19.4866 18.3823C19.1369 18.3823 18.7644 18.4579 18.3692 18.6092C17.9739 18.7606 17.6319 19.0027 17.343 19.3355C17.0694 19.6533 16.9325 20.0845 16.9325 20.6293Z" fill="#000D0B"/>
<path d="M32.3869 27.7334C31.2011 27.7334 30.1446 27.4837 29.2172 26.9844C28.2898 26.4699 27.5677 25.7663 27.0508 24.8736C26.5339 23.9657 26.2755 22.9368 26.2755 21.7868C26.2755 20.6217 26.5339 19.5928 27.0508 18.7C27.5677 17.8073 28.2822 17.1113 29.1944 16.6119C30.1065 16.0975 31.1555 15.8402 32.3413 15.8402C33.4815 15.8402 34.5229 16.1202 35.4654 16.68C36.408 17.2399 37.0921 18.0494 37.5178 19.1086L34.6901 20.1072C34.4773 19.6684 34.1428 19.3204 33.6867 19.0632C33.2459 18.7908 32.7518 18.6546 32.2045 18.6546C31.642 18.6546 31.1479 18.7908 30.7222 19.0632C30.2966 19.3204 29.9621 19.6836 29.7189 20.1526C29.4756 20.6217 29.354 21.1664 29.354 21.7868C29.354 22.4072 29.4756 22.9519 29.7189 23.421C29.9621 23.8749 30.3042 24.2381 30.7451 24.5104C31.1859 24.7828 31.6876 24.919 32.2501 24.919C32.7974 24.919 33.2915 24.7752 33.7324 24.4877C34.1884 24.2002 34.5229 23.822 34.7357 23.3529L37.5862 24.3516C37.1453 25.4259 36.4536 26.2581 35.511 26.8482C34.5837 27.4383 33.5423 27.7334 32.3869 27.7334Z" fill="#000D0B"/>
<path d="M39.5222 27.461V16.1126H42.5323V27.461H39.5222ZM41.0273 14.2741C40.5712 14.2741 40.1683 14.1077 39.8187 13.7748C39.469 13.4268 39.2942 13.0183 39.2942 12.5492C39.2942 12.0801 39.469 11.6791 39.8187 11.3462C40.1683 10.9982 40.5712 10.8242 41.0273 10.8242C41.4985 10.8242 41.9014 10.9982 42.2359 11.3462C42.5855 11.6791 42.7603 12.0801 42.7603 12.5492C42.7603 13.0183 42.5855 13.4268 42.2359 13.7748C41.9014 14.1077 41.4985 14.2741 41.0273 14.2741Z" fill="#000D0B"/>
<path d="M45.422 32.0004V16.1126H48.2496L48.4321 18.2007V32.0004H45.422ZM51.8755 27.7334C50.9177 27.7334 50.1044 27.4913 49.4354 27.0071C48.7817 26.5229 48.28 25.8344 47.9304 24.9417C47.5807 24.0489 47.4059 22.9973 47.4059 21.7868C47.4059 20.5612 47.5807 19.5096 47.9304 18.6319C48.28 17.7392 48.7817 17.0507 49.4354 16.5665C50.1044 16.0823 50.9177 15.8402 51.8755 15.8402C52.9244 15.8402 53.829 16.0823 54.5891 16.5665C55.3644 17.0507 55.9649 17.7392 56.3906 18.6319C56.8163 19.5096 57.0291 20.5612 57.0291 21.7868C57.0291 22.9973 56.8163 24.0489 56.3906 24.9417C55.9649 25.8344 55.3644 26.5229 54.5891 27.0071C53.829 27.4913 52.9244 27.7334 51.8755 27.7334ZM51.1001 24.9871C51.6474 24.9871 52.1263 24.8509 52.5368 24.5785C52.9624 24.3062 53.2969 23.9279 53.5401 23.4437C53.7834 22.9595 53.905 22.4072 53.905 21.7868C53.905 21.1664 53.7834 20.6141 53.5401 20.1299C53.3121 19.6457 52.9852 19.275 52.5596 19.0178C52.1491 18.7454 51.6702 18.6092 51.1229 18.6092C50.606 18.6092 50.1424 18.7454 49.7319 19.0178C49.3214 19.2902 49.0022 19.6684 48.7741 20.1526C48.5461 20.6217 48.4321 21.1664 48.4321 21.7868C48.4321 22.4072 48.5461 22.9595 48.7741 23.4437C49.0022 23.9279 49.3138 24.3062 49.7091 24.5785C50.1196 24.8509 50.5832 24.9871 51.1001 24.9871Z" fill="#000D0B"/>
<path d="M64.1573 27.7334C63.0323 27.7334 62.0365 27.4837 61.17 26.9844C60.3034 26.4699 59.6193 25.7663 59.1176 24.8736C58.6311 23.9808 58.3879 22.9519 58.3879 21.7868C58.3879 20.6217 58.6387 19.5928 59.1404 18.7C59.6573 17.8073 60.3566 17.1113 61.2384 16.6119C62.1353 16.0975 63.1615 15.8402 64.3169 15.8402C65.3203 15.8402 66.24 16.105 67.0761 16.6346C67.9275 17.1491 68.604 17.9132 69.1057 18.927C69.6226 19.9257 69.881 21.1437 69.881 22.5812H61.2384L61.512 22.3088C61.512 22.8687 61.6488 23.3605 61.9225 23.7841C62.2113 24.1927 62.5762 24.5104 63.0171 24.7374C63.4731 24.9492 63.9596 25.0552 64.4765 25.0552C65.0998 25.0552 65.6091 24.9265 66.0044 24.6693C66.3996 24.397 66.7037 24.0489 66.9165 23.6253L69.6074 24.6693C69.2881 25.3048 68.87 25.8571 68.3532 26.3262C67.8515 26.7801 67.251 27.1281 66.5517 27.3702C65.8523 27.6123 65.0542 27.7334 64.1573 27.7334ZM61.6716 20.6293L61.398 20.3569H66.8937L66.6429 20.6293C66.6429 20.0845 66.5137 19.6533 66.2552 19.3355C65.9968 19.0027 65.6775 18.7606 65.2974 18.6092C64.9326 18.4579 64.5753 18.3823 64.2257 18.3823C63.876 18.3823 63.5036 18.4579 63.1083 18.6092C62.713 18.7606 62.371 19.0027 62.0821 19.3355C61.8085 19.6533 61.6716 20.0845 61.6716 20.6293Z" fill="#000D0B"/>
<path d="M82.8562 27.7334C82.0505 27.7334 81.2979 27.635 80.5986 27.4383C79.8993 27.2416 79.276 26.9693 78.7287 26.6212C78.1814 26.2581 77.7253 25.8571 77.3605 25.4183C77.0108 24.9795 76.7828 24.518 76.6764 24.0338L79.7321 23.1259C79.9297 23.6404 80.2794 24.0868 80.7811 24.465C81.2827 24.8282 81.9136 25.0173 82.6738 25.0325C83.4795 25.0476 84.1332 24.8736 84.6349 24.5104C85.1518 24.1473 85.4102 23.6782 85.4102 23.1032C85.4102 22.6039 85.205 22.1878 84.7945 21.8549C84.3993 21.5069 83.852 21.2421 83.1526 21.0605L81.0775 20.5158C80.3022 20.3191 79.6181 20.024 79.0252 19.6306C78.4323 19.2221 77.9686 18.7227 77.6341 18.1326C77.2997 17.5425 77.1324 16.854 77.1324 16.0672C77.1324 14.5692 77.6265 13.4041 78.6147 12.5719C79.6181 11.7245 81.0319 11.3009 82.8562 11.3009C83.8748 11.3009 84.7641 11.4522 85.5242 11.7548C86.2996 12.0423 86.9457 12.4584 87.4626 13.0031C87.9795 13.5478 88.3747 14.1909 88.6484 14.9324L85.6155 15.8629C85.433 15.3485 85.0986 14.9097 84.6121 14.5465C84.1256 14.1834 83.5099 14.0018 82.765 14.0018C82.0049 14.0018 81.4044 14.1758 80.9635 14.5238C80.5378 14.8718 80.325 15.3636 80.325 15.9991C80.325 16.4984 80.4922 16.8919 80.8267 17.1793C81.1763 17.4668 81.6476 17.6862 82.2405 17.8376L84.3384 18.3596C85.7067 18.6925 86.7709 19.2902 87.531 20.1526C88.2911 21.0151 88.6712 21.976 88.6712 23.0351C88.6712 23.9733 88.4431 24.7979 87.9871 25.5091C87.531 26.2051 86.8697 26.7499 86.0031 27.1433C85.1366 27.5367 84.0876 27.7334 82.8562 27.7334Z" fill="#000D0B"/>
<path d="M95.6131 27.7334C94.3513 27.7334 93.3936 27.4232 92.7399 26.8028C92.1014 26.1824 91.7821 25.2973 91.7821 24.1473V12.5719H94.7922V23.4891C94.7922 23.9733 94.8986 24.344 95.1115 24.6012C95.3243 24.8433 95.636 24.9644 96.0464 24.9644C96.1984 24.9644 96.3657 24.9341 96.5481 24.8736C96.7305 24.7979 96.9206 24.692 97.1182 24.5558L98.1672 26.8028C97.8023 27.0752 97.3918 27.2946 96.9358 27.461C96.4949 27.6426 96.054 27.7334 95.6131 27.7334ZM89.935 18.6546V16.1126H97.6427V18.6546H89.935Z" fill="#000D0B"/>
<path d="M106.777 27.461L106.686 25.1686V21.7187C106.686 21.0378 106.61 20.4553 106.458 19.9711C106.321 19.4869 106.093 19.1161 105.773 18.8589C105.469 18.5866 105.051 18.4504 104.519 18.4504C104.033 18.4504 103.592 18.5563 103.197 18.7681C102.801 18.98 102.467 19.3053 102.193 19.7441L99.5481 18.8362C99.7609 18.352 100.073 17.8829 100.483 17.429C100.893 16.9599 101.426 16.5817 102.079 16.2942C102.748 15.9915 103.562 15.8402 104.519 15.8402C105.675 15.8402 106.632 16.0596 107.393 16.4984C108.168 16.9372 108.738 17.5576 109.103 18.3596C109.483 19.1464 109.665 20.0845 109.65 21.174L109.582 27.461H106.777ZM103.584 27.7334C102.216 27.7334 101.152 27.4308 100.392 26.8255C99.6469 26.2203 99.2744 25.3654 99.2744 24.2608C99.2744 23.0503 99.6773 22.1424 100.483 21.5371C101.304 20.9168 102.452 20.6066 103.926 20.6066H106.822V22.8309H104.975C103.987 22.8309 103.303 22.9519 102.923 23.194C102.543 23.421 102.353 23.7463 102.353 24.17C102.353 24.5029 102.505 24.7677 102.809 24.9644C103.113 25.146 103.539 25.2367 104.086 25.2367C104.588 25.2367 105.029 25.1233 105.409 24.8963C105.804 24.6542 106.116 24.3516 106.344 23.9884C106.572 23.6101 106.686 23.2243 106.686 22.8309H107.415C107.415 24.3743 107.119 25.5772 106.526 26.4397C105.948 27.3022 104.968 27.7334 103.584 27.7334Z" fill="#000D0B"/>
<path d="M114.17 21.4918C114.17 20.2661 114.406 19.2523 114.877 18.4504C115.363 17.6484 115.979 17.0507 116.724 16.6573C117.484 16.2639 118.275 16.0672 119.096 16.0672V18.9724C118.396 18.9724 117.735 19.0556 117.112 19.2221C116.504 19.3885 116.009 19.6609 115.629 20.0392C115.249 20.4174 115.059 20.9016 115.059 21.4918H114.17ZM112.049 27.461V16.1126H115.059V27.461H112.049Z" fill="#000D0B"/>
<path d="M123.563 24.5785L121.761 22.5131L127.599 16.1126H131.179L123.563 24.5785ZM120.69 27.461V11.5732H123.7V27.461H120.69ZM127.987 27.461L124.201 21.9684L126.163 19.903L131.521 27.461H127.987Z" fill="#000D0B"/>
<path d="M163.448 5.30471C155.647 2.00585 152.108 3.1156 147.781 12.1767L141.939 23.0134C140.028 28.1928 141.739 28.4008 147.781 25.9208L161.324 18.7844C173.462 13.1583 172.369 10.2586 163.448 5.30471Z" fill="#33A107"/>
<path d="M142.205 0.549762C133.442 2.39943 133.176 3.19235 134.239 14.0295L135.832 23.2803C136.894 26.7158 137.691 26.7158 140.081 23.2803C140.081 23.2803 143.798 17.7298 148.844 7.42178C153.89 -2.88625 142.205 0.549762 142.205 0.549762Z" fill="#F49600"/>
</svg>
